<svg version="1.1" xmlns="http://www.w3.org/2000/svg" viewBox="0 0 711 662">
  <!-- svg-source:excalidraw -->
  <defs>
    <style>
      @font-face {
        font-family: "Virgil";
        src: url("https://excalidraw.com/FG_Virgil.woff2");
      }
      @font-face {
        font-family: "Cascadia";
        src: url("https://excalidraw.com/Cascadia.woff2");
      }
    </style>
  </defs>
  <g transform="translate(97 46) rotate(0 247.5 235.5)"><path d="M312.09545286621386 7.8362762506610295 C331.9981469890576 9.321920671577374, 351.60702502242873 21.894320754819425, 369.50360775935775 31.689778362771847 C387.40019049628677 41.48523597072427, 404.818885004066 53.45221814680881, 419.47494928778815 66.60902189837554 C434.1310135715103 79.76582564994229, 447.00773124362576 93.98841777577765, 457.43999346169073 110.63060087217227 C467.8722556797557 127.27278396856688, 475.95557078744065 147.23664677779692, 482.0685225961781 166.46212047674322 C488.1814744049156 185.68759417568953, 492.9249000705426 206.26375934799609, 494.1177043141155 225.9834430658501 C495.31050855768837 245.70312678370414, 493.47137483641404 265.99486167972634, 489.2253480576154 284.7802227838673 C484.97932127881677 303.5655838880083, 477.52979125345286 321.09483955323276, 468.64154364132366 338.6956096906958 C459.7532960291945 356.2963798281588, 449.43588341402597 375.19123300219235, 435.89586238484014 390.38484360864544 C422.3558413556543 405.57845421509853, 404.5505422942338 418.75622392144146, 387.40141746620856 429.85727332941417 C370.2522926381833 440.9583227373869, 352.49049841221347 450.2993183260239, 333.00111341668855 456.99114005648175 C313.51172842116364 463.6829617869396, 290.973356040933 468.1904177419118, 270.4651074930589 470.00820371216116 C249.95685894518473 471.8259896824105, 230.28820859263448 471.1019581954765, 209.95162212944365 467.8978558779778 C189.61503566625282 464.6937535604791, 167.7390225661904 458.39516911397925, 148.445588713914 450.78358980716894 C129.15215486163757 443.1720105003586, 110.07638359279846 434.44574059920666, 94.19101901578509 422.2283800371161 C78.30565443877171 410.01101947502553, 65.2672748494166 393.5747246477348, 53.1334012518337 377.47942643462557 C40.999527654250805 361.38412822151633, 29.618924613205863 343.58775339630034, 21.387777430287713 325.6565907584608 C13.156630247369563 307.7254281206213, 6.938101844313687 289.2627180362523, 3.7465181543248036 269.89245060758833 C0.5549344643359198 250.52218317892434, 0.4049743511209034 229.12934424725907, 2.2382752903544088 209.43498618647692 C4.071576229587914 189.74062812569477, 7.837584618306195 170.22008021595354, 14.746323789725835 151.7263022428954 C21.655062961145475 133.23252426983726, 31.686005862111912 114.14021245366267, 43.69071031887225 98.47231834812797 C55.695414775632585 82.80442424259327, 71.09121572531558 70.47269232100732, 86.77455053028785 57.71893760968723 C102.45788533526013 44.965182898367146, 119.33959102012776 30.86640151724506, 137.79071914870593 21.949790080207464 C156.2418472772841 13.033178643169867, 176.70661480728404 7.8221800855814365, 197.4813193017569 4.219268987461646 C218.25602379622978 0.616357889341856, 234.08956593361103 -4.102191562486344, 262.4389461155432 0.3323234914887223 C290.7883262974754 4.766838545463789, 342.35585112822156 20.20802647942555, 367.57760039335 30.826359311312046 C392.79934965847843 41.444692143198544, 415.88988954750573 60.87135885824076, 413.7694417063138 64.04232048280772 M398.99799975228984 51.676987495269 C416.5054714112149 60.08782188143772, 429.4181962138201 73.9346634632878, 441.7580417563677 89.66338265165805 C454.0978872989152 105.3921018400283, 464.1679355095605 127.75117863423773, 473.03707300757515 146.0493026254905 C481.9062105055898 164.34742661674326, 491.0998768900717 180.4829824075946, 494.9728667444555 199.45212659917465 C498.84585659883925 218.4212707907547, 498.81006944743467 239.95322529315305, 496.2750121338778 259.86416777497084 C493.7399548203209 279.7751102567886, 487.3354203189552 300.70190429194025, 479.76252286311416 318.9177814900813 C472.1896254072731 337.1336586882224, 462.64881138375057 353.25952784520587, 450.8376273988315 369.1594309638173 C439.02644341391243 385.0593340824287, 425.0895001325254 401.41932833550135, 408.89541895359974 414.3172002017497 C392.7013377746741 427.21507206799805, 372.73125435903137 437.4926300455719, 353.67314032527736 446.5466621613075 C334.61502629152335 455.6006942770431, 314.69464773263815 464.5330564688791, 294.5467347510755 468.6413928961631 C274.3988217695129 472.74972932344707, 253.4135101775692 472.51725133145004, 232.78566243590154 471.1966807250114 C212.15781469423388 469.87611011857274, 189.86845546299475 466.4725654823444, 170.77964830106947 460.7179692575311 C151.6908411391442 454.96337303271775, 135.80251143529497 447.5455495004187, 118.25281946434981 436.6691033761316 C100.70312749340465 425.7926572518445, 79.93502156317956 410.00887305090475, 65.48149647539847 395.45929251180837 C51.02797138761738 380.909711972712, 41.19009689064972 366.20822517369834, 31.531668937663255 349.3716201415534 C21.87324098467679 332.5350151094085, 12.95496804838115 313.45458355630853, 7.530928757479671 294.4396623189389 C2.106889466578191 275.4247410815692, -1.6183229683789953 254.87073053984614, -1.0125668077456282 235.2820927173355 C-0.40681064711226134 215.69345489482487, 5.7427800145781775 196.2038162130383, 11.165465721279872 176.90783538387507 C16.58815142798157 157.61185455471184, 21.848282378588486 136.61793777809882, 31.52354743246454 119.50620774235605 C41.19881248634059 102.39447770661327, 54.52711576752162 88.48198088388241, 69.2170560445362 74.23745516941841 C83.90699632155079 59.99292945495441, 102.17234419730922 45.16827127567402, 119.66318909455205 34.03905345557203 C137.1540339917949 22.90983563547004, 154.3452153906145 12.876894574420234, 174.16212542799323 7.462148248806443 C193.97903546537196 2.047401923192652, 217.4294146188368 1.4989023809806383, 238.5646493188244 1.5505755018892842 C259.699884018812 1.60224862279793, 281.3236715204599 3.5291389377969864, 300.97353362791875 7.772186974258318 C320.6233957353776 12.01523501071965, 339.8204021717871 20.342009038312, 356.4638219635775 27.008863720657274 C373.1072417553679 33.67571840300255, 394.1541867970624 42.95391471795464, 400.8340523786612 47.773315068329964 C407.5139179602601 52.59271541870529, 399.2774906020338 52.44569233810406, 396.5430154531707 55.92526582290924" style="stroke: rgb(0, 0, 0); stroke-width: 2; fill: none;"></path></g><g transform="translate(492 377) rotate(0 46 41)"><path d="M47.626742455921054 -0.7305739218013798 C55.47995300586524 -0.9665501649891652, 66.05773973173656 2.7796631519415262, 73.07964810881793 7.699674231903671 C80.10155648589931 12.619685311865815, 86.61867313867465 21.332255247423813, 89.7581927184093 28.78949255797149 C92.89771229814396 36.24672986851916, 94.06890898878744 45.03818773282928, 91.91676558722583 52.44309809518972 C89.76462218566421 59.84800845755016, 83.56950900478266 68.37256453721999, 76.84533230903959 73.21895473213411 C70.12115561329652 78.06534492704823, 60.42157725235448 81.00753822026094, 51.571705412767415 81.52143926467446 C42.72183357318035 82.03534030908797, 31.452867029965265 80.1481593143183, 23.746101271517183 76.30236099861519 C16.0393355130691 72.45656268291206, 8.93328088884691 65.08515990062693, 5.33111086207893 58.44664937045572 C1.7289408353109494 51.8081388402845, 1.3106471308123488 44.08746950269453, 2.133081110909302 36.47129781758786 C2.955515091006255 28.85512613248119, 4.568810579986663 18.331077934445542, 10.265714742660649 12.749619259815681 C15.962618905334633 7.16816058518582, 25.6196689048707 3.6830073675071264, 36.314506086953216 2.982545769808695 C47.00934326903573 2.2820841721102636, 65.41590530607303 4.239451698569194, 74.43473783515573 8.546849673625093 C83.45357036423843 12.854247648680992, 90.67772030544687 28.12235323589975, 90.42750126144941 28.82693362014409 M38.98438406352825 -2.0457214010521625 C47.35831260494874 -4.269734516017117, 57.40622930393167 -0.9960261896212317, 64.92501758915722 1.9518402299777406 C72.44380587438278 4.8997066495767125, 79.21499772533804 8.663764695496816, 84.09711377488158 15.641477116541672 C88.97922982442512 22.61918953758653, 93.77176667644801 35.468838720108835, 94.2177138864185 43.81811475624688 C94.66366109638898 52.16739079238492, 91.9064444426411 60.0563247711937, 86.77279703470452 65.73713333336994 C81.63914962676795 71.41794189554618, 71.96674980530256 75.55134049248146, 63.415829438798994 77.9029661293043 C54.86490907229543 80.25459176612715, 43.894904473730286 81.50659180853738, 35.46727483568317 79.84688715430701 C27.039645197636055 78.18718250007664, 18.538516507737103 73.14302628056726, 12.85005161051631 67.94473820392213 C7.161586713295516 62.746450127276994, 2.941449868089813 56.12793317568895, 1.3364854523584029 48.65715869443621 C-0.26847896337300736 41.18638421318347, -0.28699074504989674 30.632366250869186, 3.220265116127848 23.12009131640567 C6.727520977305593 15.607816381942154, 16.685044139316084 6.865758203324225, 22.380020619424872 3.5835090876551234 C28.07499709953366 0.30125997198602184, 35.047073771718175 3.8711932623293612, 37.39012399678058 3.4265966223910596 C39.73317422184299 2.981999982452758, 36.250544485139095 0.7714863491899232, 36.4383219697993 0.9159292480253143" style="stroke: rgb(0, 0, 0); stroke-width: 2; fill: none;"></path></g><g transform="translate(105 385) rotate(0 46.5 41)"><path d="M78.4968029512439 10.172052947955201 C84.83514739383077 14.785173124961648, 90.02990671340223 24.489682420155372, 92.16598646496325 32.160979956916904 C94.30206621652428 39.83227749367843, 94.46227702381461 48.712760617246666, 91.31328146061006 56.19983816852439 C88.1642858974055 63.68691571980211, 80.92865272527064 72.7620520485429, 73.27201308573594 77.08344526458325 C65.61537344620123 81.4048384806236, 54.05064222635272 82.30107469503459, 45.373443623401855 82.12819746476652 C36.69624502045099 81.95532023449844, 28.462084595260908 80.66247709695301, 21.208821468030756 76.04618188297484 C13.955558340800604 71.42988666899666, 4.869218300107375 61.50859242708793, 1.8538648600209413 54.43042618089741 C-1.1614885800654924 47.35225993470689, 1.1153081806544005 40.49183202739306, 3.1167008275121546 33.5771844058317 C5.118093474369909 26.66253678427034, 8.032343414493464 18.70542962877247, 13.862220741167466 12.942540451529254 C19.692098067841467 7.179651274286038, 29.591987239122915 0.5785386829547541, 38.095964787556156 -1.000150657627593 C46.5999423359894 -2.57883999820994, 55.97939866562248 -2.600822072718983, 64.88608603176692 3.470404408035172 C73.79277339791136 9.541630888789328, 87.84068800780398 25.74490198116483, 91.53608898442278 35.427208226897335 C95.23148996104158 45.10951447262984, 87.65451301803125 61.389639005372985, 87.05849189147969 61.564241882430196 M7.556096145393461 13.6930650494192 C11.81556829729925 7.50972301172193, 23.834179579010815 1.1611052539774704, 32.09704298033357 -0.8268983093927815 C40.35990638165632 -2.8149018727630333, 48.46817007214667 -1.1482925273673317, 57.13327655332997 1.7650436691976878 C65.79838303451326 4.678379865762707, 78.0348266081457 10.733480867210005, 84.08768186743336 16.653118869997336 C90.14053712672101 22.572756872784666, 93.38529309047443 29.989099436665832, 93.45040810905593 37.28287168592167 C93.51552312763742 44.57664393517751, 88.64870758366423 53.75793826741536, 84.4783719789223 60.41575236553237 C80.30803637418036 67.07356646364939, 76.02295457617132 74.03874589868177, 68.42839448060428 77.22975627462372 C60.83383438503724 80.42076665056568, 47.71612366586483 80.04361843405661, 38.91101140552006 79.56181462118411 C30.105899145175282 79.08001080831161, 22.06952632584084 79.01193289409377, 15.597720918535636 74.3389333973887 C9.125915511230431 69.66593390068363, 2.517926131806881 59.67845147254377, 0.08017896168882999 51.52381764095364 C-2.357568208429221 43.369183809363506, -1.1025723109018202 31.823399375980365, 0.9712378978273293 25.4111304078479 C3.0450481065564787 18.998861439715434, 10.897980512506514 14.481359003711015, 12.523040214063727 13.05020383215885 C14.14809991562094 11.619048660606685, 10.069808726459026 15.660145562703702, 10.721596107170605 16.824199378534914" style="stroke: rgb(0, 0, 0); stroke-width: 2; fill: none;"></path></g><g transform="translate(300 10) rotate(0 46 40.5)"><path d="M34.40991981052332 1.3327922278377216 C42.04734569258872 -1.7770442525204473, 50.4290569175553 -2.33583224462363, 58.62373427765673 -0.010717845916232704 C66.81841163775816 2.3143965527911647, 78.20334504030079 8.879394869002194, 83.5779839711319 15.283478620082107 C88.95262290196301 21.68756237116202, 90.57441822898299 30.874173539868988, 90.87156786264336 38.41378466056325 C91.16871749630373 45.95339578125751, 89.33232993709848 54.309451121430556, 85.36088177309412 60.52114534424769 C81.38943360908976 66.73283956706483, 74.76729362577126 72.0974996649427, 67.04287887861719 75.68394999746607 C59.31846413146312 79.27040032998944, 47.56142020800653 82.64410035666097, 39.014393290169714 82.03984733938789 C30.467366372332897 81.43559432211481, 22.161967654206233 77.18444424686966, 15.760717371596296 72.05843189382763 C9.35946708898636 66.9324195407856, 2.9910003410346047 59.06061475034476, 0.6068915945100954 51.283773221135746 C-1.7772171520144138 43.50693169192673, -2.0827109155742627 32.60538760926776, 1.4560648924492412 25.39738271857355 C4.994840700472745 18.189377827879344, 14.979199618973816 12.519512630228354, 21.83954644265112 8.035743876970507 C28.699893266328424 3.55197512371266, 38.239052449039576 -0.557052071533859, 42.61814583451306 -1.505229800973531 C46.99723921998654 -2.453407530413203, 48.25055239157459 1.6385967155106478, 48.114106755492024 2.3466775003324756 M79.70260589371196 18.58910365873429 C84.96080597368349 23.872405673660456, 90.93995823060727 31.125833603812065, 92.35398172124579 38.519451544977926 C93.7680052118843 45.91306948614379, 93.1158242778893 56.763896683999434, 88.18674683754304 62.95081130572946 C83.25766939719678 69.13772592745948, 71.3136439878731 73.17494443312032, 62.77951707916819 75.64093927535806 C54.24539017046327 78.10693411759581, 44.788190136643124 78.72446408923268, 36.981985385313536 77.74678035915598 C29.175780633983948 76.76909662907927, 22.38416357090866 74.9013906372762, 15.942288571190666 69.77483689489785 C9.50041357147267 64.6482831525195, 0.8398975969983788 54.26080594060461, -1.6692646129944393 46.98745790488592 C-4.178426822987257 39.71410986916723, -2.9422148307899225 32.638736476189024, 0.8873153112337562 26.134748680585723 C4.716845453257434 19.630760884982422, 13.452623626476147 11.92271005514984, 21.307916239147634 7.963531131266123 C29.16320885181912 4.004352207382405, 39.114570342286584 2.163505222803991, 48.01907098726267 2.3796751372834137 C56.92357163223876 2.5958450517628364, 68.99468105236687 6.798387795250967, 74.73492010900415 9.26055061814266 C80.47515916564143 11.722713441034351, 81.70749320617736 15.69522380184414, 82.46050532708637 17.152652074633565 C83.21351744799537 18.61008034742299, 79.64350140729101 17.671106271614246, 79.25299283445821 18.00512025487921" style="stroke: rgb(0, 0, 0); stroke-width: 2; fill: none;"></path></g><g transform="translate(296 221) rotate(0 49.5 49)"><path d="M79.10780323136609 10.836030491453208 C85.66238308883634 15.100644628852645, 91.06998861838478 22.54109739179647, 94.43478236014043 30.621411199482605 C97.79957610189608 38.70172500716874, 100.5319856706061 50.50420414933113, 99.29656568189999 59.317913337570005 C98.06114569319388 68.13162252580888, 93.40466239462214 77.09715737869206, 87.0222624279038 83.50366632891584 C80.63986246118546 89.91017527913962, 69.86972338722191 95.73849216911368, 61.00216588159 97.75696703891273 C52.13460837595809 99.77544190871178, 42.09606417238828 98.3143708293985, 33.81691739411231 95.61451554771011 C25.53777061583634 92.91466026602173, 16.56234947392165 88.22203057077314, 11.32728521193419 81.55783534878242 C6.092220949946728 74.8936401267917, 3.776578648427493 64.10565151178922, 2.4065318221875387 55.62934421576575 C1.0364849959475844 47.153036919742284, -0.47846607578771794 38.83419834285951, 3.1070042544944627 30.69999157264163 C6.692474584776644 22.565784802423753, 16.36259586811067 12.041245601394738, 23.91935380388062 6.824103594458492 C31.476111739650573 1.606961587522247, 39.86936499332371 -0.4475987669506848, 48.44755186911418 -0.602860468975841 C57.02573874490465 -0.7581221710009972, 67.47219865339403 0.9496330174347678, 75.38847505862344 5.892533382307555 C83.30475146385285 10.835433747180343, 92.41015819808707 21.820307717889857, 95.94521030049069 29.05454172026088 C99.4802624028943 36.288775722631904, 97.50832125073859 49.11506835215586, 96.59878767304508 49.29793739653369 M71.72174838044688 3.6202178037708066 C80.24721630854923 6.406087356089081, 88.91856823480373 15.707706820699318, 93.94826947043839 22.911914704348987 C98.97797070607305 30.116122587998657, 102.28020193052389 37.95203185728547, 101.89995579425481 46.84546510566883 C101.51970965798573 55.73889835405219, 96.45790420319331 68.71748986095929, 91.66679265282391 76.27251419464916 C86.87568110245452 83.82753852833903, 80.69203560085649 88.62053006812228, 73.15328649203846 92.1756111078081 C65.61453738322044 95.73069214749391, 54.978419229938424 97.98739510489108, 46.43429799991576 97.60300043276405 C37.8901767698931 97.21860576063702, 29.512252946566853 95.38802729367976, 21.88855911190251 89.86924307504592 C14.264865277238165 84.35045885641208, 4.265149297687179 73.01684129823153, 0.6921349919296915 64.49029512096101 C-2.8808793138277964 55.96374894369049, -1.5516978292672738 46.64053697747019, 0.450473277357581 38.70996601142282 C2.452644383982436 30.779395045375455, 6.649717631697427 23.272786007328147, 12.70516163167882 16.906869324676812 C18.760605631660212 10.540952642025477, 28.226630543727268 3.126245501246012, 36.78313727724594 0.514465915514819 C45.339644010764616 -2.097313670216374, 58.07258728238172 0.8523765985199283, 64.04420203279085 1.2361918102896539 C70.01581678319998 1.6200070220593794, 71.3018808835114 1.9742406670163901, 72.61282577970073 2.8173571861331723 C73.92377067589005 3.6604737052499545, 72.49320816058523 5.7199177101209315, 71.90987140992684 6.294890924990348" style="stroke: rgb(0, 0, 0); stroke-width: 2; fill: none;"></path></g><g><g transform="translate(488 423) rotate(0 -144.33404751531782 1.7874420790746512)"><path d="M-0.5422720205038787 -1.6127017427235841 C-48.99691048972309 -1.4995827564348776, -240.05907681894803 -0.6637941051274536, -288.12582301013174 -0.20252206809818718 M-2.2124608097970486 1.3442502866685393 C-49.22655511324604 1.8847951668997607, -237.32965919757882 4.974207005749147, -285.09441222295163 5.187585900872946" style="stroke: rgb(0, 0, 0); stroke-width: 2; fill: none;"></path></g></g><g><g transform="translate(378 82) rotate(0 70.07701859585939 148.68134086742998)"><path d="M2.2994451235979794 -1.0844388019293545 C24.952599993472298 48.754284901296096, 115.55604700557888 249.6116729645679, 137.85459206812084 299.413720260933 M4.11009190902114 -2.0734596405923367 C26.30426934743921 48.225670238087574, 112.3713152093192 249.3164690468212, 133.78968896731735 299.4361413754523" style="stroke: rgb(0, 0, 0); stroke-width: 2; fill: none;"></path></g></g><g><g transform="translate(313 78) rotate(0 -67.04694256171581 155.84711854569616)"><path d="M1.6272258151322605 2.2173222493380305 C-20.327025716627634 53.441632667308056, -111.75922136815885 258.5920042704791, -134.4377022039145 309.47691484205427 M3.7125030697882178 3.995681747049094 C-19.4793285078307 55.24693183764816, -114.78617816711466 257.8003618751467, -137.8063881932199 309.0755250822008" style="stroke: rgb(0, 0, 0); stroke-width: 2; fill: none;"></path></g></g><g><g transform="translate(390 242) rotate(0 103.0099484611303 -63.57783278115093)"><path d="M-0.7124983798712492 2.1907052349299194 C33.494179831817746 -18.97867165890833, 173.0577711014698 -107.93116095152995, 206.73239530213178 -129.3463707972318 M1.993252624422312 1.2574334894120698 C36.366943863779305 -19.066084842433533, 172.23203059569 -102.23778211409847, 205.57196740999817 -124.04115197792649" style="stroke: rgb(0, 0, 0); stroke-width: 2; fill: none;"></path></g></g><g><g transform="translate(301 252) rotate(0 -102.21973733790219 -59.58735564816743)"><path d="M1.051920909807086 2.0742372978478665 C-32.9349149633199 -17.74686108144621, -171.4515286811938 -100.67430323871473, -205.49139558561146 -121.15631305091082 M-1.2882070983946323 -0.9648466072976589 C-34.00509350274999 -20.78847124521931, -165.68568374926843 -102.24026093746225, -198.87058086529373 -121.24894859418274" style="stroke: rgb(0, 0, 0); stroke-width: 2; fill: none;"></path></g></g><g><g transform="translate(349 321) rotate(0 0.6899806119897676 104.84075616016986)"><path d="M-2.4044467497617004 0.5509422529488801 C-2.15414298462371 34.86398922887941, -0.1904163806388775 172.17755684740843, 0.13349209539592266 207.19693685658277 M3.7050622974336154 -0.9378405819833278 C3.992923105806113 34.66457370017966, 3.430786126703024 175.88378874833387, 3.0972670827805997 210.61935290232302" style="stroke: rgb(0, 0, 0); stroke-width: 2; fill: none;"></path></g></g><g transform="translate(318 281) rotate(0 26 16)"><text x="0" y="23" font-family="Virgil" font-size="20px" fill="#000000" text-anchor="start">Magie</text></g><g transform="translate(116.5 436) rotate(0 28.5 16)"><text x="0" y="23" font-family="Virgil" font-size="20px" fill="#000000" text-anchor="start">Coeur</text></g><g transform="translate(514 424) rotate(0 29 16)"><text x="0" y="23" font-family="Virgil" font-size="20px" fill="#000000" text-anchor="start">Corps</text></g><g transform="translate(314 54) rotate(0 29 16)"><text x="0" y="23" font-family="Virgil" font-size="20px" fill="#000000" text-anchor="start">Esprit</text></g><g transform="translate(579 47) rotate(0 61 64)"><text x="0" y="23" font-family="Virgil" font-size="20px" fill="#000000" text-anchor="start">Bagarre</text><text x="0" y="55" font-family="Virgil" font-size="20px" fill="#000000" text-anchor="start"> Endurance</text><text x="0" y="87" font-family="Virgil" font-size="20px" fill="#000000" text-anchor="start">  Perception</text><text x="0" y="119" font-family="Virgil" font-size="20px" fill="#000000" text-anchor="start">   Précision</text></g><g transform="translate(302.5 524) rotate(0 51.5 64)"><text x="51.5" y="23" font-family="Virgil" font-size="20px" fill="#000000" text-anchor="middle">Décorum</text><text x="51.5" y="55" font-family="Virgil" font-size="20px" fill="#000000" text-anchor="middle">Discrétion</text><text x="51.5" y="87" font-family="Virgil" font-size="20px" fill="#000000" text-anchor="middle">Persuasion</text><text x="51.5" y="119" font-family="Virgil" font-size="20px" fill="#000000" text-anchor="middle">Romance</text></g><g transform="translate(10 59) rotate(0 47 64)"><text x="0" y="23" font-family="Virgil" font-size="20px" fill="#000000" text-anchor="start">   Bluff</text><text x="0" y="55" font-family="Virgil" font-size="20px" fill="#000000" text-anchor="start">  Farce</text><text x="0" y="87" font-family="Virgil" font-size="20px" fill="#000000" text-anchor="start"> Tactique</text><text x="0" y="119" font-family="Virgil" font-size="20px" fill="#000000" text-anchor="start">Rumeur</text></g></svg>